<mxfile host="app.diagrams.net" modified="2022-03-17T12:58:42.616Z" agent="5.0 (Windows NT 10.0; Win64; x64) AppleWebKit/537.36 (KHTML, like Gecko) Chrome/99.0.4844.51 Safari/537.36" etag="f-DDdYybc9pzxshMAt86" version="17.1.0" type="github">
  <diagram id="B-Y0DcFHt61VpQktwHwy" name="Page-1">
    <mxGraphModel dx="861" dy="482" grid="1" gridSize="10" guides="1" tooltips="1" connect="1" arrows="1" fold="1" page="1" pageScale="1" pageWidth="827" pageHeight="1169" math="0" shadow="0">
      <root>
        <mxCell id="0" />
        <mxCell id="1" parent="0" />
        <mxCell id="5HmjkkCs2bhOT6wg_kpK-3" value="Fim" style="rounded=1;whiteSpace=wrap;html=1;" vertex="1" parent="1">
          <mxGeometry x="180" y="770" width="120" height="60" as="geometry" />
        </mxCell>
        <mxCell id="5HmjkkCs2bhOT6wg_kpK-14" value="" style="edgeStyle=orthogonalEdgeStyle;rounded=0;orthogonalLoop=1;jettySize=auto;html=1;" edge="1" parent="1" source="5HmjkkCs2bhOT6wg_kpK-4" target="5HmjkkCs2bhOT6wg_kpK-5">
          <mxGeometry relative="1" as="geometry" />
        </mxCell>
        <mxCell id="5HmjkkCs2bhOT6wg_kpK-4" value="Ínicio" style="rounded=1;whiteSpace=wrap;html=1;" vertex="1" parent="1">
          <mxGeometry x="190" y="240" width="120" height="60" as="geometry" />
        </mxCell>
        <mxCell id="5HmjkkCs2bhOT6wg_kpK-13" value="" style="edgeStyle=orthogonalEdgeStyle;rounded=0;orthogonalLoop=1;jettySize=auto;html=1;" edge="1" parent="1" source="5HmjkkCs2bhOT6wg_kpK-5" target="5HmjkkCs2bhOT6wg_kpK-7">
          <mxGeometry relative="1" as="geometry" />
        </mxCell>
        <mxCell id="5HmjkkCs2bhOT6wg_kpK-5" value="Entrada" style="shape=parallelogram;perimeter=parallelogramPerimeter;whiteSpace=wrap;html=1;fixedSize=1;" vertex="1" parent="1">
          <mxGeometry x="190" y="340" width="120" height="60" as="geometry" />
        </mxCell>
        <mxCell id="5HmjkkCs2bhOT6wg_kpK-27" value="" style="edgeStyle=orthogonalEdgeStyle;rounded=0;orthogonalLoop=1;jettySize=auto;html=1;" edge="1" parent="1" source="5HmjkkCs2bhOT6wg_kpK-6" target="5HmjkkCs2bhOT6wg_kpK-3">
          <mxGeometry relative="1" as="geometry" />
        </mxCell>
        <mxCell id="5HmjkkCs2bhOT6wg_kpK-6" value="Saída" style="shape=document;whiteSpace=wrap;html=1;boundedLbl=1;" vertex="1" parent="1">
          <mxGeometry x="90" y="620" width="120" height="80" as="geometry" />
        </mxCell>
        <mxCell id="5HmjkkCs2bhOT6wg_kpK-15" value="" style="edgeStyle=orthogonalEdgeStyle;rounded=0;orthogonalLoop=1;jettySize=auto;html=1;" edge="1" parent="1" source="5HmjkkCs2bhOT6wg_kpK-7" target="5HmjkkCs2bhOT6wg_kpK-8">
          <mxGeometry relative="1" as="geometry" />
        </mxCell>
        <mxCell id="5HmjkkCs2bhOT6wg_kpK-7" value="Processamento" style="rounded=0;whiteSpace=wrap;html=1;" vertex="1" parent="1">
          <mxGeometry x="190" y="430" width="120" height="60" as="geometry" />
        </mxCell>
        <mxCell id="5HmjkkCs2bhOT6wg_kpK-18" value="" style="edgeStyle=orthogonalEdgeStyle;rounded=0;orthogonalLoop=1;jettySize=auto;html=1;" edge="1" parent="1" source="5HmjkkCs2bhOT6wg_kpK-8" target="5HmjkkCs2bhOT6wg_kpK-6">
          <mxGeometry relative="1" as="geometry" />
        </mxCell>
        <mxCell id="5HmjkkCs2bhOT6wg_kpK-26" value="" style="edgeStyle=orthogonalEdgeStyle;rounded=0;orthogonalLoop=1;jettySize=auto;html=1;" edge="1" parent="1" source="5HmjkkCs2bhOT6wg_kpK-8" target="5HmjkkCs2bhOT6wg_kpK-16">
          <mxGeometry relative="1" as="geometry" />
        </mxCell>
        <mxCell id="5HmjkkCs2bhOT6wg_kpK-8" value="Decisão" style="rhombus;whiteSpace=wrap;html=1;" vertex="1" parent="1">
          <mxGeometry x="210" y="520" width="80" height="80" as="geometry" />
        </mxCell>
        <mxCell id="5HmjkkCs2bhOT6wg_kpK-28" value="" style="edgeStyle=orthogonalEdgeStyle;rounded=0;orthogonalLoop=1;jettySize=auto;html=1;" edge="1" parent="1" source="5HmjkkCs2bhOT6wg_kpK-16" target="5HmjkkCs2bhOT6wg_kpK-3">
          <mxGeometry relative="1" as="geometry" />
        </mxCell>
        <mxCell id="5HmjkkCs2bhOT6wg_kpK-16" value="Saída" style="shape=document;whiteSpace=wrap;html=1;boundedLbl=1;" vertex="1" parent="1">
          <mxGeometry x="290" y="620" width="120" height="80" as="geometry" />
        </mxCell>
      </root>
    </mxGraphModel>
  </diagram>
</mxfile>
